<?xml version="1.0" encoding="UTF-8" standalone="no"?>
<!-- Created with Inkscape (http://www.inkscape.org/) -->

<svg
   width="36.0px"
   height="36.0px"
   viewBox="0 0 36.0 36.0"
   version="1.1"
   id="SVGRoot"
   sodipodi:docname="co_logo.svg"
   inkscape:version="1.2.1 (9c6d41e410, 2022-07-14)"
   xmlns:inkscape="http://www.inkscape.org/namespaces/inkscape"
   xmlns:sodipodi="http://sodipodi.sourceforge.net/DTD/sodipodi-0.dtd"
   xmlns="http://www.w3.org/2000/svg"
   xmlns:svg="http://www.w3.org/2000/svg">
  <sodipodi:namedview
     id="namedview21"
     pagecolor="#505050"
     bordercolor="#eeeeee"
     borderopacity="1"
     inkscape:showpageshadow="0"
     inkscape:pageopacity="0"
     inkscape:pagecheckerboard="0"
     inkscape:deskcolor="#505050"
     inkscape:document-units="px"
     showgrid="true"
     inkscape:zoom="13.854101"
     inkscape:cx="10.105311"
     inkscape:cy="18.983548"
     inkscape:window-width="1440"
     inkscape:window-height="831"
     inkscape:window-x="0"
     inkscape:window-y="0"
     inkscape:window-maximized="1"
     inkscape:current-layer="layer1">
    <inkscape:grid
       type="xygrid"
       id="grid27" />
  </sodipodi:namedview>
  <defs
     id="defs16" />
  <g
     inkscape:label="Taso 1"
     inkscape:groupmode="layer"
     id="layer1">
    <path
       id="path136"
       style="fill:#000000;stroke-width:0.746467"
       inkscape:label="Cut"
       d="M 18 2 A 16 16 0 0 0 2 18 A 16 16 0 0 0 18 34 A 16 16 0 0 0 29.078125 29.492188 L 26.261719 26.673828 A 12 12 0 0 1 18 30 A 12 12 0 0 1 6 18 A 12 12 0 0 1 18 6 A 12 12 0 0 1 26.273438 9.3144531 L 29.103516 6.484375 A 16 16 0 0 0 18 2 z " />
    <path
       id="path531"
       style="fill:#000000;stroke-width:0.990515"
       d="M 18 9 A 9 9 0 0 0 9 18 A 9 9 0 0 0 18 27 A 9 9 0 0 0 27 18 A 9 9 0 0 0 18 9 z M 18 12 A 6 6 0 0 1 24 18 A 6 6 0 0 1 18 24 A 6 6 0 0 1 12 18 A 6 6 0 0 1 18 12 z " />
  </g>
</svg>
